<?xml version="1.0" encoding="utf-8"?>
<!-- Generator: Adobe Illustrator 25.4.1, SVG Export Plug-In . SVG Version: 6.00 Build 0)  -->
<svg version="1.1" id="Capa_1" xmlns="http://www.w3.org/2000/svg" xmlns:xlink="http://www.w3.org/1999/xlink" x="0px" y="0px"
	 viewBox="0 0 200 194" style="enable-background:new 0 0 200 194;" xml:space="preserve">
<style type="text/css">
	.st0{fill:#D791FF;}
	.st1{fill:#FD9FFF;}
	.st2{fill:#E9D5FF;}
</style>
<path class="st0" d="M189.15,95.97c-0.95,2.13-3.31,3.31-3.31,5.68c-0.47,7.1,6.87,7.93-2.84,11.72c-0.95,0.47-1.42,0.95-1.66,1.9
	c-0.71,0.47-1.18,1.42-0.95,2.6c0.23,1.9,0.47,3.55,0.23,5.44c-0.71,3.55-4.26,2.6-6.63,3.55c-3.08,1.18-4.73,2.6-6.63,4.97
	c-5.68,6.87-13.96,1.66-21.07,3.31c-3.08,0.95-5.92,2.37-9,3.79c-4.97,2.37-8.29,3.08-13.73,1.18c-2.6-0.95-4.97-0.71-7.81-0.23
	c-5.21,1.42-10.18,2.6-15.62,2.84h-0.47H99.2c-4.26-0.23-8.29-0.47-12.31-1.42c-3.31-0.71-6.16-2.13-9.47-1.9
	c-4.03,0.23-6.87,2.84-11.13,1.66c-4.03-1.18-7.57-4.03-11.6-5.44c-6.87-2.6-13.49,1.9-20.12-2.13c-2.84-1.66-4.03-4.73-7.34-6.16
	c-2.13-0.95-4.73-0.23-6.63-1.9c-2.13-1.66-1.42-5.44-0.95-7.57c0.23-1.18-0.23-2.13-0.95-2.6c-0.23-0.95-0.71-1.42-1.66-1.9
	c-4.26-1.66-6.16,2.25-5.21-2.25c0.71-2.6,2.6-5.21,2.6-8.05c-0.23-2.13-0.71-3.55-2.13-5.44c-3.55-4.03-0.95-10.89,2.13-14.44
	c0.23-0.23,0.47-0.47,0.47-0.47c1.18-1.18,1.18-3.31-0.47-4.26c-5.68-3.08-1.66-10.89,3.08-12.55c2.37,2.6,5.21,4.5,8.52,5.44
	c3.79,1.18,5.92-0.71,8.05-2.84c2.6,0.47,4.5,0.47,7.57-0.47c3.08-0.95,5.44-3.08,7.1-5.92c2.13-3.31,2.13-7.57,3.08-11.36
	c1.18-4.73,3.08-8.76,3.55-13.73c0.47-3.55-4.97-3.55-5.44,0c-0.71,5.92-3.55,11.13-4.26,16.81c-1.18,6.63-4.97,10.89-11.83,8.76
	c-0.71-0.23-1.9,0-2.6,0.71c-2.13,2.6-3.08,3.79-6.87,1.42c-3.08-1.66-4.97-5.21-6.39-8.29c-3.08-5.92-4.26-13.49-0.95-19.65
	c2.6-4.73,9.47-6.63,13.49-9.7c8.05-5.92,14.2-11.36,24.38-6.16c0.71,0.47,1.42,0.47,2.13,0.23c1.18,0.47,2.84,0,3.08-1.66
	c1.18-7.34,13.26-1.66,18.46-2.84c3.55-0.71,4.26-3.55,8.29-2.84c3.55,0.71,7.34,1.66,10.89,2.84c0.47,0.23,0.95,0.23,1.42,0
	c0.47,0.23,0.95,0.23,1.66,0c3.08-0.95,6.39-1.66,9.47-2.37c4.26-0.95,5.92-0.71,9.47,1.66c5.44,3.79,18.7-4.97,20.12,3.55
	c0.23,1.66,1.66,2.13,3.08,1.66c0.71,0.23,1.42,0.23,2.13-0.23c9.47-4.97,16.33-0.47,23.67,5.68c4.03,3.31,9.47,4.97,13.02,8.76
	c4.97,4.97,3.08,13.49,1.18,19.17c-1.42,3.55-3.55,6.63-6.16,9.23c-1.42,1.42-3.55,2.6-5.68,2.13c-1.18-0.23-1.66-1.66-2.37-2.6
	c-0.71-0.71-1.9-0.95-2.6-0.71c-6.16,1.9-9.94-1.18-11.6-7.1c-0.47-2.6-0.71-5.21-1.66-7.81c-1.42-3.55-2.37-6.87-2.84-10.65
	c-0.47-3.55-5.92-3.55-5.44,0c0.47,4.26,1.42,8.05,3.08,12.07c1.42,4.26,1.42,9,3.55,13.02c1.18,2.6,3.55,4.5,5.92,5.44
	c3.55,1.42,5.68,1.66,8.76,0.95c1.9,2.13,3.31,3.08,7.34,3.08c3.55,0,6.87-3.08,9.23-5.68c4.73,1.66,8.52,9.47,3.08,12.55
	c-1.66,0.95-1.66,3.08-0.47,4.26c0,0,0.23,0.23,0.23,0.47c2.6,2.84,5.44,9,3.79,12.78L189.15,95.97z M94.47,108.79v-0.23l0,0
	c0.23,0,0.47-0.23,0.71-0.23c1.42-0.71,3.31-0.71,4.97-0.71c1.42-0.23,3.08,0,4.73,0.47c0.23,0.23,0.47,0.23,0.71,0.47
	c-0.47,1.42-3.08,2.84-4.97,3.55C98.96,111.62,95.18,110.43,94.47,108.79L94.47,108.79z M115.77,116.6
	c-1.42,2.6-4.26,3.31-6.87,3.31c-3.08,0-5.44-1.42-6.39-4.03c3.08-1.42,7.1-3.79,7.34-7.57c0-4.5-6.63-4.97-9.7-4.97
	c-3.31,0-9.7,0.71-9.94,4.97c0,3.79,4.03,5.92,7.34,7.1c-0.71,2.6-2.84,4.26-5.68,4.5c-2.84,0.23-6.16-0.71-7.57-3.31
	c-1.18-2.37-4.73-0.23-3.55,2.13c3.79,7.34,14.68,6.87,19.17,0.95c4.73,5.92,15.62,6.39,19.41-0.95
	C120.51,116.36,116.96,114.23,115.77,116.6L115.77,116.6z M58.72,86.26c-2.36,0-4.74,3.55-4.74,8.29c0,4.33,2.36,8.29,4.74,8.29
	c2.77,0,4.74-3.94,4.74-8.29C63.46,89.81,61.49,86.26,58.72,86.26z M191.03,81.29c5.68-5.92,1.9-16.33-5.21-19.88
	c4.03-6.87,5.68-15.15,3.79-22.73c-2.13-9.47-11.36-11.36-17.99-16.81c-8.52-7.1-17.04-10.89-27.22-6.63
	c-1.18-2.84-3.31-4.5-6.87-4.97c-4.5-0.71-9,1.9-13.49,1.42c-2.13-0.47-3.08-2.37-5.21-3.08c-1.9-0.71-4.03-0.47-6.16-0.23
	c-4.5,0.47-9,1.66-13.26,3.08c0,0-0.23,0-0.23-0.23c-4.03-1.18-8.29-2.37-12.31-3.08c-1.9-0.23-4.03-0.23-5.68,0.47
	c-2.13,0.71-3.08,2.6-5.21,3.08c-4.03,0.71-8.76-1.66-12.78-1.66c-3.79,0.23-6.39,2.37-7.57,5.21c-9.47-4.03-17.99-1.18-26.04,5.44
	c-7.1,5.92-16.09,8.29-19.17,17.99c-2.37,7.34,0,15.86,3.79,22.73c-7.1,3.55-10.89,13.96-5.21,19.88
	c-2.13,3.08-3.55,6.87-4.03,10.42c-0.23,1.9-0.23,4.03,0.47,5.44c1.42,3.08,3.79,4.5,2.84,8.05c-1.42,4.73-3.08,1.07-1.18,6.03
	c1.18,3.55,4.03,5.44,7.1,6.87c-0.95,5.92,0.71,13.73,8.29,13.96c4.73,0.23,7.81,5.44,11.83,7.57c3.55,1.9,7.57,1.66,11.36,1.18
	c5.21-0.47,7.81-0.23,12.55,2.37c4.03,1.9,7.34,4.03,11.83,3.79c1.9,0,3.79-0.95,5.68-1.66c2.84-0.95,5.21,0,8.05,0.95
	c4.97,1.42,10.18,1.9,15.39,1.9h0.47h0.47c5.21,0,10.18-0.71,15.39-2.37c5.21-1.66,8.52,0.95,13.73,1.42
	c4.26,0.23,8.76-2.37,12.55-4.26c4.73-2.37,7.34-2.6,12.55-2.13c3.79,0.47,7.81,0.71,11.36-1.18c4.03-2.13,7.1-7.34,11.83-7.57
	c7.57-0.23,9-8.05,8.29-13.96c8.29-4.03,9.23-4.38,5.92-12.9c-1.18-3.08,0.47-4.26,2.13-6.63c1.18-1.66,1.42-4.03,1.18-6.16
	C195.06,88.62,193.16,84.6,191.03,81.29L191.03,81.29z M140.74,86.18c-2.36,0-4.74,3.55-4.74,8.29c0,4.33,2.36,8.29,4.74,8.29
	c2.77,0,4.74-3.94,4.74-8.29C145.47,89.73,143.5,86.18,140.74,86.18z"/>
<path class="st1" d="M105.59,108.55c-0.24-0.23-0.48-0.23-0.71-0.47c-1.65-0.47-3.31-0.7-4.73-0.47c-1.66,0-3.56,0-4.97,0.71
	c-0.24,0-0.48,0.23-0.71,0.23v0.23l0-0.01c0.71,1.65,4.5,2.84,6.16,3.31C102.52,111.39,105.12,109.96,105.59,108.55z"/>
<path class="st2" d="M185.35,83.17c0-0.23-0.23-0.47-0.23-0.47c-1.19-1.18-1.19-3.31,0.47-4.26c5.44-3.08,1.65-10.89-3.08-12.55
	c-2.37,2.6-5.69,5.68-9.23,5.68c-4.03,0-5.44-0.95-7.34-3.08c-3.08,0.71-5.21,0.47-8.76-0.95c-2.37-0.95-4.74-2.84-5.92-5.44
	c-2.13-4.02-2.13-8.76-3.55-13.02c-1.66-4.02-2.61-7.81-3.08-12.07c-0.48-3.55,4.97-3.55,5.44,0c0.48,3.78,1.43,7.1,2.84,10.65
	c0.95,2.6,1.19,5.21,1.66,7.81c1.66,5.92,5.44,9,11.6,7.1c0.7-0.23,1.89,0,2.6,0.71c0.7,0.94,1.18,2.37,2.37,2.6
	c2.13,0.47,4.26-0.71,5.68-2.13c2.61-2.61,4.74-5.69,6.16-9.23c1.9-5.68,3.79-14.2-1.18-19.17c-3.55-3.78-8.99-5.44-13.02-8.76
	c-7.34-6.15-14.2-10.65-23.67-5.68c-0.71,0.47-1.42,0.47-2.13,0.23c-1.42,0.47-2.84,0-3.08-1.66c-1.42-8.52-14.68,0.24-20.12-3.55
	c-3.55-2.37-5.21-2.61-9.47-1.66c-3.08,0.7-6.39,1.42-9.47,2.37c-0.71,0.23-1.19,0.23-1.66,0c-0.47,0.23-0.95,0.23-1.42,0
	c-3.55-1.18-7.34-2.13-10.89-2.84c-4.03-0.7-4.74,2.13-8.29,2.84c-5.2,1.18-17.28-4.5-18.46,2.84c-0.24,1.66-1.9,2.13-3.08,1.66
	c-0.71,0.23-1.42,0.23-2.13-0.23c-10.18-5.21-16.33,0.23-24.38,6.16c-4.03,3.08-10.89,4.97-13.49,9.7
	c-3.31,6.16-2.13,13.73,0.95,19.65c1.42,3.08,3.31,6.63,6.39,8.29c3.79,2.37,4.74,1.18,6.87-1.42c0.7-0.71,1.89-0.95,2.6-0.71
	c6.86,2.13,10.65-2.13,11.83-8.76c0.71-5.68,3.55-10.89,4.26-16.81c0.47-3.55,5.91-3.55,5.44,0c-0.47,4.97-2.37,9-3.55,13.73
	c-0.95,3.79-0.95,8.05-3.08,11.36c-1.66,2.84-4.03,4.97-7.1,5.92c-3.08,0.94-4.97,0.94-7.57,0.47c-2.13,2.13-4.26,4.03-8.05,2.84
	c-3.31-0.95-6.16-2.84-8.52-5.44c-4.74,1.66-8.76,9.47-3.08,12.55c1.65,0.95,1.65,3.08,0.47,4.26c0,0-0.23,0.23-0.47,0.47
	c-3.08,3.56-5.68,10.42-2.13,14.44c1.42,1.9,1.9,3.31,2.13,5.44c0,2.84-1.89,5.45-2.6,8.05c-0.95,4.5,0.95,0.59,5.21,2.25
	c0.95,0.48,1.43,0.95,1.66,1.9c0.71,0.47,1.18,1.42,0.95,2.6c-0.47,2.13-1.18,5.91,0.95,7.57c1.9,1.66,4.5,0.95,6.63,1.9
	c3.31,1.43,4.5,4.5,7.34,6.16c6.62,4.03,13.25-0.47,20.12,2.13c4.03,1.42,7.57,4.26,11.6,5.44c4.26,1.18,7.1-1.43,11.13-1.66
	c3.31-0.23,6.16,1.18,9.47,1.9c4.03,0.95,8.05,1.18,12.31,1.42h0.47h0.47c5.44-0.24,10.42-1.43,15.62-2.84
	c2.83-0.48,5.21-0.71,7.81,0.23c5.44,1.9,8.76,1.18,13.73-1.18c3.08-1.43,5.92-2.84,9-3.79c7.1-1.65,15.39,3.56,21.07-3.31
	c1.9-2.37,3.55-3.79,6.63-4.97c2.37-0.95,5.91,0,6.63-3.55c0.23-1.9,0-3.55-0.23-5.44c-0.23-1.18,0.23-2.13,0.95-2.6
	c0.24-0.95,0.71-1.43,1.66-1.9c9.71-3.79,2.37-4.62,2.84-11.72c0-2.37,2.37-3.55,3.31-5.68l-0.01-0.02
	C190.79,92.17,187.95,86.02,185.35,83.17z M58.72,102.83c-2.38,0-4.74-3.95-4.74-8.29c0-4.74,2.38-8.29,4.74-8.29
	c2.77,0,4.74,3.55,4.74,8.29C63.46,98.89,61.49,102.83,58.72,102.83z M119.32,118.73c-3.78,7.34-14.68,6.87-19.41,0.95
	c-4.5,5.92-15.38,6.39-19.17-0.95c-1.18-2.37,2.37-4.5,3.55-2.13c1.42,2.6,4.73,3.55,7.57,3.31c2.83-0.24,4.96-1.9,5.68-4.5
	c-3.31-1.18-7.34-3.31-7.34-7.1c0.23-4.26,6.63-4.97,9.94-4.97c3.08,0,9.7,0.48,9.7,4.97c-0.24,3.78-4.26,6.16-7.34,7.57
	c0.95,2.61,3.31,4.03,6.39,4.03c2.61,0,5.45-0.71,6.87-3.31l0.01,0C116.96,114.23,120.51,116.36,119.32,118.73z M140.74,102.76
	c-2.38,0-4.74-3.95-4.74-8.29c0-4.74,2.38-8.29,4.74-8.29c2.77,0,4.74,3.55,4.74,8.29C145.47,98.82,143.5,102.76,140.74,102.76z"/>
<g>
	<path class="st0" d="M17.87,168.44c-2.03-0.85-3.76-1.98-5.2-3.38c-1.44-1.4-2.53-2.98-3.27-4.74c-0.74-1.76-1.12-3.62-1.12-5.59
		c-0.01-1.97,0.4-3.94,1.23-5.92c0.83-1.98,1.95-3.65,3.35-5.03c1.41-1.37,3-2.41,4.79-3.11c1.79-0.7,3.69-1.03,5.69-0.99
		c2.01,0.04,4.02,0.49,6.05,1.34c1.95,0.82,3.65,1.92,5.1,3.29c1.45,1.38,2.49,2.97,3.12,4.77l-2.57,1.05
		c-0.63-1.59-1.51-2.92-2.64-3.98c-1.13-1.06-2.46-1.91-4-2.56c-1.62-0.68-3.24-1.03-4.86-1.06c-1.62-0.03-3.15,0.25-4.61,0.83
		c-1.45,0.58-2.75,1.43-3.89,2.54s-2.05,2.47-2.73,4.09c-0.68,1.62-1.01,3.22-1,4.81c0.01,1.59,0.32,3.11,0.92,4.56
		c0.6,1.45,1.48,2.74,2.64,3.87c1.16,1.13,2.54,2.04,4.16,2.72c1.54,0.65,3.09,0.99,4.64,1.04c1.55,0.05,3.12-0.27,4.69-0.93
		l1.05,2.57c-1.73,0.82-3.6,1.2-5.6,1.14C21.84,169.71,19.85,169.26,17.87,168.44z"/>
	<path class="st0" d="M32.24,173.94l20.1-25.11l2.96,0.74l5.84,31.63l-3.16-0.79l-5.22-29.62l1.22,0.31l-18.61,23.63L32.24,173.94z
		 M39.25,167.64l1.5-2.21l16.49,4.15l0.28,2.66L39.25,167.64z"/>
	<path class="st0" d="M68.84,182.28l2.53-29.14l2.54,0.22l17.91,27.05l-1.33-0.11l2.19-25.31l3.04,0.26l-2.53,29.14l-2.54-0.22
		l-17.87-27.05l1.33,0.11l-2.19,25.31L68.84,182.28z"/>
	<path class="st0" d="M104.81,184.1l-0.86-29.24l3.09-0.09l0.86,29.24L104.81,184.1z"/>
	<path class="st0" d="M124.68,182.75l-3.2-26.38l-10.2,1.24l-0.32-2.65l23.48-2.85l0.32,2.65l-10.2,1.24l3.2,26.38L124.68,182.75z"
		/>
	<path class="st0" d="M157.82,176.59c-2.12,0.58-4.19,0.77-6.2,0.55c-2.01-0.21-3.86-0.79-5.54-1.73c-1.69-0.94-3.14-2.17-4.35-3.7
		c-1.21-1.53-2.11-3.33-2.68-5.4c-0.57-2.07-0.72-4.07-0.46-6.01c0.26-1.94,0.88-3.74,1.85-5.41c0.97-1.67,2.26-3.1,3.86-4.31
		c1.6-1.21,3.48-2.1,5.63-2.69c2.12-0.58,4.18-0.77,6.18-0.55c1.99,0.22,3.84,0.79,5.52,1.71c1.68,0.92,3.13,2.16,4.35,3.7
		c1.22,1.54,2.11,3.35,2.68,5.42c0.57,2.07,0.72,4.08,0.47,6.02c-0.26,1.95-0.88,3.75-1.85,5.41c-0.97,1.65-2.26,3.09-3.87,4.29
		C161.81,175.11,159.94,176.01,157.82,176.59z M157.09,173.93c1.69-0.47,3.18-1.18,4.46-2.16c1.28-0.97,2.3-2.13,3.07-3.49
		c0.77-1.35,1.26-2.81,1.46-4.39c0.2-1.57,0.07-3.2-0.39-4.9c-0.47-1.69-1.19-3.16-2.17-4.41c-0.98-1.25-2.14-2.26-3.5-3.03
		c-1.35-0.77-2.83-1.24-4.42-1.43c-1.6-0.18-3.24-0.04-4.93,0.42c-1.69,0.47-3.18,1.19-4.48,2.16c-1.29,0.98-2.33,2.14-3.11,3.5
		s-1.28,2.82-1.48,4.39c-0.2,1.57-0.07,3.2,0.39,4.9c0.46,1.66,1.18,3.13,2.16,4.39c0.98,1.26,2.16,2.27,3.52,3.04
		c1.37,0.77,2.85,1.24,4.46,1.42C153.75,174.54,155.4,174.4,157.09,173.93z"/>
	<path class="st0" d="M188.96,165.42c-1.98,0.89-4.03,1.41-6.14,1.58c-2.11,0.16-3.89-0.04-5.33-0.61l0.13-2.67
		c1.35,0.49,2.96,0.7,4.83,0.61c1.87-0.09,3.68-0.52,5.43-1.31c1.68-0.75,2.95-1.57,3.82-2.46c0.87-0.89,1.39-1.8,1.57-2.74
		c0.18-0.93,0.07-1.83-0.31-2.7c-0.47-1.04-1.14-1.75-2.02-2.12c-0.88-0.37-1.89-0.52-3.02-0.46c-1.13,0.06-2.34,0.22-3.64,0.46
		c-1.3,0.24-2.6,0.47-3.91,0.67c-1.31,0.21-2.58,0.26-3.79,0.16c-1.22-0.1-2.32-0.45-3.31-1.06c-0.99-0.61-1.8-1.63-2.44-3.05
		c-0.59-1.32-0.79-2.69-0.58-4.11c0.2-1.42,0.88-2.79,2.03-4.11c1.15-1.32,2.85-2.49,5.12-3.5c1.5-0.67,3.08-1.13,4.74-1.37
		c1.66-0.24,3.19-0.23,4.59,0.03l0.05,2.68c-1.49-0.25-2.95-0.27-4.39-0.05c-1.44,0.22-2.76,0.59-3.96,1.13
		c-1.6,0.72-2.83,1.52-3.68,2.42c-0.85,0.9-1.36,1.82-1.53,2.77c-0.17,0.95-0.05,1.88,0.36,2.79c0.47,1.04,1.14,1.75,2.02,2.12
		c0.88,0.37,1.89,0.51,3.03,0.43c1.14-0.08,2.36-0.24,3.65-0.49c1.3-0.24,2.6-0.46,3.9-0.65c1.31-0.19,2.56-0.24,3.78-0.16
		c1.21,0.08,2.31,0.42,3.3,1.02c0.98,0.6,1.79,1.6,2.41,2.99c0.58,1.3,0.76,2.66,0.54,4.08c-0.22,1.42-0.91,2.8-2.07,4.13
		C192.97,163.22,191.25,164.4,188.96,165.42z"/>
</g>
</svg>
