<svg xmlns="http://www.w3.org/2000/svg" version="1.1" viewBox="-5.0 -10.0 110.0 135.0">
 <path d="m94.449 57.145c-0.47266 1.0625-1.6523 1.6523-1.6523 2.832-0.23438 3.543 3.4258 7.4375-1.418 9.3281-0.47266 0.23437-0.70703 0.47266-0.82812 0.94531-0.35547 0.23438-0.58984 0.70703-0.47266 1.2969 0.11719 0.94531 0.23438 1.7695 0.11719 2.7148-0.35547 1.7695-2.125 1.2969-3.3047 1.7695-1.5352 0.58984-2.3594 1.2969-3.3047 2.4805-2.832 3.4258-6.9648 0.82812-10.508 1.6523-1.5352 0.47266-2.9531 1.1797-4.4883 1.8906-2.4805 1.1797-4.1328 1.5352-6.8477 0.58984-1.2969-0.47266-2.4805-0.35547-3.8945-0.11719-2.5977 0.70703-5.0781 1.2969-7.793 1.418h-0.23438-0.23437c-2.125-0.11719-4.1328-0.23437-6.1406-0.70703-1.6523-0.35547-3.0703-1.0625-4.7227-0.94531-2.0078 0.11719-3.4258 1.418-5.5508 0.82812-2.0078-0.58984-3.7773-2.0078-5.7852-2.7148-3.4258-1.2969-6.7305 0.94531-10.035-1.0625-1.418-0.82812-2.0078-2.3594-3.6602-3.0703-1.0625-0.47266-2.3594-0.11719-3.3047-0.94531-1.0625-0.82812-0.70703-2.7148-0.47266-3.7773 0.11719-0.58984-0.11719-1.0625-0.47266-1.2969-0.11719-0.47266-0.35547-0.70703-0.82812-0.94531-2.125-0.82812-3.0703-2.3594-2.5977-4.6055 0.35547-1.2969 1.2969-2.5977 1.2969-4.0156-0.11719-1.0625-0.35547-1.7695-1.0625-2.7148-1.7695-2.0078-0.47266-5.4297 1.0625-7.2031 0.11719-0.11719 0.23438-0.23438 0.23438-0.23438 0.58984-0.58984 0.58984-1.6523-0.23438-2.125-2.832-1.5352-0.82812-5.4297 1.5352-6.2578 1.1797 1.2969 2.5977 2.2422 4.25 2.7148 1.8906 0.58984 2.9531-0.35547 4.0156-1.418 1.2969 0.23438 2.2422 0.23438 3.7773-0.23438 1.5352-0.47266 2.7148-1.5352 3.543-2.9531 1.0625-1.6523 1.0625-3.7773 1.5352-5.668 0.58984-2.3594 1.5352-4.3672 1.7695-6.8477 0.23438-1.7695-2.4805-1.7695-2.7148 0-0.35547 2.9531-1.7695 5.5508-2.125 8.3828-0.58984 3.3047-2.4805 5.4297-5.9023 4.3672-0.35547-0.11719-0.94531 0-1.2969 0.35547-1.0625 1.2969-1.5352 1.8906-3.4258 0.70703-1.5352-0.82812-2.4805-2.5977-3.1875-4.1328-1.5352-2.9531-2.125-6.7305-0.47266-9.8008 1.2969-2.3594 4.7227-3.3047 6.7305-4.8398 4.0156-2.9531 7.082-5.668 12.16-3.0703 0.35547 0.23438 0.70703 0.23438 1.0625 0.11719 0.58984 0.23438 1.418 0 1.5352-0.82812 0.58984-3.6602 6.6133-0.82812 9.207-1.418 1.7695-0.35547 2.125-1.7695 4.1328-1.418 1.7695 0.35547 3.6602 0.82812 5.4297 1.418 0.23438 0.11719 0.47266 0.11719 0.70703 0 0.23438 0.11719 0.47266 0.11719 0.82812 0 1.5352-0.47266 3.1875-0.82813 4.7227-1.1797 2.125-0.47266 2.9531-0.35547 4.7227 0.82812 2.7148 1.8906 9.3281-2.4805 10.035 1.7695 0.11719 0.82812 0.82812 1.0625 1.5352 0.82812 0.35547 0.11719 0.70703 0.11719 1.0625-0.11719 4.7227-2.4805 8.1445-0.23438 11.805 2.832 2.0078 1.6523 4.7227 2.4805 6.4922 4.3672 2.4805 2.4805 1.5352 6.7305 0.58984 9.5625-0.70703 1.7695-1.7695 3.3047-3.0703 4.6055-0.70703 0.70703-1.7695 1.2969-2.832 1.0625-0.58984-0.11719-0.82812-0.82812-1.1797-1.2969-0.35547-0.35547-0.94531-0.47266-1.2969-0.35547-3.0703 0.94531-4.957-0.58984-5.7852-3.543-0.23438-1.2969-0.35547-2.5977-0.82812-3.8945-0.70703-1.7695-1.1797-3.4258-1.418-5.3125-0.23438-1.7695-2.9531-1.7695-2.7148 0 0.23438 2.125 0.70703 4.0156 1.5352 6.0195 0.70703 2.125 0.70703 4.4883 1.7695 6.4922 0.58984 1.2969 1.7695 2.2422 2.9531 2.7148 1.7695 0.70703 2.832 0.82812 4.3672 0.47266 0.94531 1.0625 1.6523 1.5352 3.6602 1.5352 1.7695 0 3.4258-1.5352 4.6055-2.832 2.3594 0.82812 4.25 4.7227 1.5352 6.2578-0.82812 0.47266-0.82812 1.5352-0.23438 2.125 0 0 0.11719 0.11719 0.11719 0.23438 1.2969 1.418 2.7148 4.4883 1.8906 6.375zm-47.227 0.58984v-0.11719 0.11719zv-0.11719c0.11719 0 0.23438-0.11719 0.35547-0.11719 0.70703-0.35547 1.6523-0.35547 2.4805-0.35547 0.70703-0.11719 1.5352 0 2.3594 0.23438 0.11719 0.11719 0.23438 0.11719 0.35547 0.23438-0.23438 0.70703-1.5352 1.418-2.4805 1.7695-0.82812-0.23437-2.7148-0.82812-3.0703-1.6523zm10.625 3.8945c-0.70703 1.2969-2.125 1.6523-3.4258 1.6523-1.5352 0-2.7148-0.70703-3.1875-2.0078 1.5352-0.70703 3.543-1.8906 3.6602-3.7773 0-2.2422-3.3047-2.4805-4.8398-2.4805-1.6523 0-4.8398 0.35547-4.957 2.4805 0 1.8906 2.0078 2.9531 3.6602 3.543-0.35547 1.2969-1.418 2.125-2.832 2.2422-1.418 0.11719-3.0703-0.35547-3.7773-1.6523-0.58984-1.1797-2.3594-0.11719-1.7695 1.0625 1.8906 3.6602 7.3203 3.4258 9.5625 0.47266 2.3594 2.9531 7.793 3.1875 9.6797-0.47266 0.58984-1.1797-1.1797-2.2422-1.7695-1.0625zm13.578-7.6758c-0.70703 0-1.418 1.0625-1.418 2.4805 0 1.2969 0.70703 2.4805 1.418 2.4805 0.82812 0 1.418-1.1797 1.418-2.4805 0-1.418-0.58984-2.4805-1.418-2.4805zm-42.977 0c-0.70703 0-1.418 1.0625-1.418 2.4805 0 1.2969 0.70703 2.4805 1.418 2.4805 0.82812 0 1.418-1.1797 1.418-2.4805 0-1.418-0.58984-2.4805-1.418-2.4805zm66.941-4.1328c2.832-2.9531 0.94531-8.1445-2.5977-9.918 2.0078-3.4258 2.832-7.5547 1.8906-11.336-1.0625-4.7227-5.668-5.668-8.9727-8.3828-4.25-3.543-8.5-5.4297-13.578-3.3047-0.58984-1.418-1.6523-2.2422-3.4258-2.4805-2.2422-0.35547-4.4883 0.94531-6.7305 0.70703-1.0625-0.23438-1.5352-1.1797-2.5977-1.5352-0.94531-0.35547-2.0078-0.23437-3.0703-0.11719-2.2422 0.23438-4.4883 0.82812-6.6133 1.5352 0 0-0.11719 0-0.11719-0.11719-2.0078-0.58984-4.1328-1.1797-6.1406-1.5352-0.94531-0.11719-2.0078-0.11719-2.832 0.23437-1.0625 0.35547-1.5352 1.2969-2.5977 1.5352-2.0078 0.35547-4.3672-0.82812-6.375-0.82812-1.8906 0.11719-3.1875 1.1797-3.7773 2.5977-4.7227-2.0078-8.9727-0.58984-12.988 2.7148-3.543 2.9531-8.0273 4.1328-9.5625 8.9727-1.1797 3.6602 0 7.9102 1.8906 11.336-3.543 1.7695-5.4297 6.9648-2.5977 9.918-1.0625 1.5352-1.7695 3.4258-2.0078 5.1953-0.11719 0.94531-0.11719 2.0078 0.23438 2.7148 0.70703 1.5352 1.8906 2.2422 1.418 4.0156-0.70703 2.3594-1.5352 4.0156-0.58984 6.4922 0.58984 1.7695 2.0078 2.7148 3.543 3.4258-0.47266 2.9531 0.35547 6.8477 4.1328 6.9648 2.3594 0.11719 3.8945 2.7148 5.9023 3.7773 1.7695 0.94531 3.7773 0.82812 5.668 0.58984 2.5977-0.23438 3.8945-0.11719 6.2578 1.1797 2.0078 0.94531 3.6602 2.0078 5.9023 1.8906 0.94531 0 1.8906-0.47266 2.832-0.82812 1.418-0.47266 2.5977 0 4.0156 0.47266 2.4805 0.70703 5.0781 0.94531 7.6758 0.94531h0.23438 0.23438c2.5977 0 5.0781-0.35547 7.6758-1.1797 2.5977-0.82812 4.25 0.47266 6.8477 0.70703 2.125 0.11719 4.3672-1.1797 6.2578-2.125 2.3594-1.1797 3.6602-1.2969 6.2578-1.0625 1.8906 0.23437 3.8945 0.35547 5.668-0.58984 2.0078-1.0625 3.543-3.6602 5.9023-3.7773 3.7773-0.11719 4.4883-4.0156 4.1328-6.9648 4.1328-2.0078 4.6055-5.668 2.9531-9.918-0.58984-1.5352 0.23438-2.125 1.0625-3.3047 0.58984-0.82812 0.70703-2.0078 0.58984-3.0703 0-1.8906-0.94531-3.8945-2.0078-5.5508z"/>
<text x="0.0" y="117.5" font-size="5.0" font-weight="bold" font-family="Arbeit Regular, Helvetica, Arial-Unicode, Arial, Sans-serif" fill="#000000">Created by Rafi Al Hakim</text><text x="0.0" y="122.5" font-size="5.0" font-weight="bold" font-family="Arbeit Regular, Helvetica, Arial-Unicode, Arial, Sans-serif" fill="#000000">from Noun Project</text></svg>